<?xml version="1.0" encoding="UTF-8"?><svg id="Capa_1" xmlns="http://www.w3.org/2000/svg" viewBox="0 0 480.23 169.3"><defs><style>.cls-1{fill:#f26822;}.cls-2{fill:#595959;}</style></defs><path class="cls-2" d="M232.41,64.56h10.5c3.99,0,7.18,1.05,9.59,3.15,2.4,2.1,3.6,5.25,3.6,9.45,0,2.08-.36,3.9-1.07,5.47-.71,1.57-1.68,2.89-2.9,3.95-1.22,1.06-2.66,1.86-4.31,2.39-1.65.53-3.43.8-5.35.8h-5.86v19.22h-4.21v-44.43ZM236.62,85.94h2.93c1.59,0,3.12-.09,4.61-.26,1.49-.17,2.8-.55,3.94-1.15,1.14-.59,2.05-1.47,2.75-2.64.69-1.17,1.04-2.75,1.04-4.74,0-2.8-.73-4.96-2.2-6.49-1.47-1.53-3.54-2.29-6.23-2.29h-6.84v17.57Z"/><path class="cls-2" d="M280.41,103.76h-.12c-.45.98-1.03,1.84-1.74,2.58-.71.74-1.52,1.37-2.41,1.88-.9.51-1.83.89-2.81,1.15-.98.26-1.96.38-2.93.38-2.2,0-3.97-.34-5.31-1.02-1.35-.68-2.38-1.5-3.12-2.45-.73-.95-1.22-1.96-1.47-3.02-.25-1.06-.37-1.95-.37-2.67,0-2.72.62-4.84,1.86-6.37,1.24-1.53,2.81-2.66,4.7-3.4,1.89-.74,3.96-1.2,6.2-1.37,2.24-.17,4.38-.26,6.42-.26h.73v-1.65c0-2.8-.53-4.89-1.59-6.27-1.06-1.38-2.89-2.07-5.5-2.07-1.63,0-3.21.2-4.74.61-1.52.4-3,1.09-4.42,2.07v-3.88c.61-.3,1.29-.58,2.04-.86.76-.28,1.55-.51,2.38-.7.84-.19,1.66-.35,2.47-.48.82-.13,1.57-.19,2.26-.19,3.87,0,6.65.96,8.37,2.86,1.71,1.91,2.56,4.99,2.56,9.23v14.32c0,1.32,0,2.5.03,3.56.02,1.06.11,2.14.27,3.25h-3.79v-5.22ZM280.04,92.63h-1.1c-1.67,0-3.37.07-5.1.22-1.73.15-3.3.49-4.7,1.02-1.4.53-2.55,1.32-3.45,2.36-.9,1.04-1.34,2.45-1.34,4.23,0,2.12.63,3.63,1.89,4.52,1.26.89,2.79,1.34,4.58,1.34,2.24,0,3.99-.45,5.25-1.34,1.26-.89,2.18-1.96,2.75-3.22.57-1.25.92-2.53,1.04-3.85.12-1.31.18-2.42.18-3.31v-1.97Z"/><path class="cls-2" d="M293.05,84.16c0-1.23,0-2.48-.03-3.75-.02-1.27-.09-2.57-.22-3.88h3.73v5.79h.12c.33-.72.73-1.47,1.22-2.26.49-.78,1.12-1.5,1.89-2.13.77-.64,1.72-1.16,2.84-1.56,1.12-.4,2.49-.61,4.12-.61,1.91,0,3.54.32,4.89.96,1.34.64,2.44,1.51,3.3,2.61.85,1.1,1.47,2.42,1.86,3.95.39,1.53.58,3.18.58,4.96v20.75h-3.85v-19.73c0-3.05-.57-5.49-1.71-7.32-1.14-1.82-3.04-2.74-5.68-2.74-1.75,0-3.22.36-4.4,1.08-1.18.72-2.13,1.65-2.84,2.8-.71,1.15-1.22,2.42-1.53,3.82-.3,1.4-.46,2.78-.46,4.14v17.95h-3.85v-24.82Z"/><path class="cls-2" d="M340.44,79.96h-7.08v21c0,1.49.3,2.75.92,3.79.61,1.04,1.69,1.56,3.24,1.56.73,0,1.36-.07,1.89-.22s1.08-.33,1.65-.54l.24,3.31c-.44.21-1.11.41-1.98.61-.88.19-1.78.29-2.72.29-1.71,0-3.05-.29-4-.86-.96-.57-1.66-1.35-2.11-2.32-.45-.97-.72-2.12-.82-3.44-.1-1.32-.15-2.72-.15-4.2v-18.97h-6.11v-3.44h6.11v-7.83l3.85-1.4v9.23h7.08v3.44Z"/><path class="cls-2" d="M365.24,103.76h-.12c-.44.98-1.03,1.84-1.74,2.58-.71.74-1.52,1.37-2.41,1.88-.9.51-1.83.89-2.81,1.15-.97.26-1.95.38-2.93.38-2.2,0-3.97-.34-5.31-1.02-1.34-.68-2.38-1.5-3.11-2.45-.73-.95-1.22-1.96-1.47-3.02-.24-1.06-.37-1.95-.37-2.67,0-2.72.62-4.84,1.86-6.37,1.24-1.53,2.81-2.66,4.7-3.4,1.89-.74,3.96-1.2,6.2-1.37,2.24-.17,4.38-.26,6.41-.26h.73v-1.65c0-2.8-.53-4.89-1.59-6.27-1.06-1.38-2.89-2.07-5.5-2.07-1.63,0-3.21.2-4.73.61-1.53.4-3,1.09-4.43,2.07v-3.88c.61-.3,1.29-.58,2.05-.86.75-.28,1.54-.51,2.38-.7.83-.19,1.66-.35,2.47-.48.81-.13,1.56-.19,2.26-.19,3.87,0,6.66.96,8.37,2.86,1.71,1.91,2.56,4.99,2.56,9.23v14.32c0,1.32,0,2.5.03,3.56.02,1.06.11,2.14.27,3.25h-3.79v-5.22ZM364.87,92.63h-1.1c-1.67,0-3.37.07-5.1.22-1.73.15-3.3.49-4.7,1.02-1.41.53-2.56,1.32-3.45,2.36-.9,1.04-1.34,2.45-1.34,4.23,0,2.12.63,3.63,1.89,4.52,1.26.89,2.79,1.34,4.58,1.34,2.24,0,3.99-.45,5.25-1.34,1.26-.89,2.18-1.96,2.75-3.22.57-1.25.92-2.53,1.04-3.85.12-1.31.18-2.42.18-3.31v-1.97Z"/><path class="cls-2" d="M377.88,61.25h3.85v47.74h-3.85v-47.74Z"/><path class="cls-2" d="M412.32,107.96c-1.34.6-2.83,1.04-4.46,1.34-1.63.3-3.16.44-4.58.44-2.57,0-4.76-.43-6.57-1.27-1.81-.85-3.28-2.04-4.4-3.56-1.12-1.53-1.93-3.33-2.44-5.41-.51-2.08-.77-4.33-.77-6.75s.31-4.74.95-6.84c.63-2.1,1.51-3.89,2.66-5.38,1.14-1.48,2.53-2.65,4.15-3.5,1.63-.85,3.42-1.27,5.38-1.27,2.2,0,4.08.44,5.65,1.31,1.57.87,2.85,2.04,3.85,3.5,1,1.46,1.73,3.17,2.2,5.12.47,1.95.7,4.01.7,6.17v2.04h-21.32c0,1.74.22,3.36.67,4.87.44,1.51,1.1,2.81,1.95,3.91.85,1.1,1.92,1.98,3.21,2.64,1.28.66,2.76.99,4.43.99.69,0,1.46-.07,2.29-.22.84-.15,1.65-.33,2.45-.54.79-.21,1.54-.47,2.26-.76.71-.3,1.29-.59,1.74-.89v4.07ZM410.43,90.46c0-1.4-.14-2.78-.43-4.14-.28-1.36-.74-2.57-1.37-3.63-.63-1.06-1.45-1.91-2.47-2.55-1.01-.64-2.24-.96-3.66-.96s-2.7.34-3.81,1.02c-1.12.68-2.08,1.55-2.87,2.61-.79,1.06-1.4,2.27-1.83,3.63-.43,1.36-.64,2.7-.64,4.01h17.1Z"/><path class="cls-2" d="M420.44,86.36c.57-2.06,1.44-3.87,2.63-5.44,1.18-1.57,2.69-2.82,4.52-3.76,1.83-.93,4.01-1.4,6.53-1.4s4.7.47,6.54,1.4c1.83.93,3.34,2.19,4.52,3.76,1.18,1.57,2.05,3.38,2.62,5.44.57,2.06.86,4.19.86,6.4s-.29,4.34-.86,6.4c-.57,2.06-1.45,3.87-2.62,5.44-1.18,1.57-2.69,2.82-4.52,3.76-1.83.93-4.01,1.4-6.54,1.4s-4.7-.47-6.53-1.4c-1.83-.93-3.34-2.19-4.52-3.76-1.18-1.57-2.06-3.38-2.63-5.44-.57-2.06-.85-4.19-.85-6.4s.28-4.34.85-6.4ZM424.47,98.04c.45,1.66,1.11,3.1,1.99,4.33.88,1.23,1.95,2.2,3.24,2.9,1.28.7,2.76,1.05,4.43,1.05s3.15-.35,4.43-1.05c1.28-.7,2.36-1.67,3.24-2.9.87-1.23,1.53-2.67,1.98-4.33.45-1.66.67-3.42.67-5.28s-.23-3.63-.67-5.28c-.45-1.66-1.11-3.1-1.98-4.33-.88-1.23-1.96-2.2-3.24-2.9s-2.76-1.05-4.43-1.05-3.14.35-4.43,1.05c-1.28.7-2.36,1.67-3.24,2.9-.88,1.23-1.54,2.67-1.99,4.33-.45,1.65-.67,3.42-.67,5.28s.22,3.63.67,5.28Z"/><path class="cls-2" d="M455.93,84.16c0-1.23,0-2.48-.03-3.75-.02-1.27-.09-2.57-.22-3.88h3.73v5.79h.12c.33-.72.73-1.47,1.22-2.26.49-.78,1.12-1.5,1.89-2.13.78-.64,1.72-1.16,2.84-1.56,1.12-.4,2.5-.61,4.13-.61,1.91,0,3.54.32,4.88.96,1.34.64,2.44,1.51,3.3,2.61.86,1.1,1.48,2.42,1.86,3.95.39,1.53.58,3.18.58,4.96v20.75h-3.85v-19.73c0-3.05-.57-5.49-1.71-7.32-1.14-1.82-3.03-2.74-5.68-2.74-1.75,0-3.22.36-4.4,1.08-1.18.72-2.13,1.65-2.84,2.8-.71,1.15-1.22,2.42-1.52,3.82-.31,1.4-.46,2.78-.46,4.14v17.95h-3.85v-24.82Z"/><polygon class="cls-1" points="79.01 62.19 79.01 62.19 79.01 0 79.01 0 74.6 0 74.6 0 74.6 62.19 74.6 62.19 79.01 62.19"/><rect class="cls-1" x="85.88" y="39.69" width="62.18" height="3.08" transform="translate(5.11 94.79) rotate(-45)"/><rect class="cls-1" x="117.58" y="42.33" width="38.07" height="3.08" transform="translate(8.99 109.45) rotate(-45)"/><rect class="cls-1" x="107.11" y="74.6" width="62.19" height="4.41"/><rect class="cls-1" x="131.2" y="90.35" width="38.07" height="4.41"/><rect class="cls-1" x="124.1" y="85.88" width="7.94" height="62.19" transform="translate(-45.2 124.83) rotate(-45)"/><rect class="cls-1" x="121.47" y="117.58" width="7.94" height="38.07" transform="translate(-59.86 128.7) rotate(-45)"/><rect class="cls-1" x="87.65" y="107.11" width="9.7" height="62.19"/><rect class="cls-1" x="71.89" y="131.2" width="9.7" height="38.07"/><rect class="cls-1" x="21.24" y="122.34" width="62.19" height="11.47" transform="translate(-75.23 74.51) rotate(-45)"/><rect class="cls-1" x="13.65" y="119.7" width="38.07" height="11.47" transform="translate(-79.11 59.83) rotate(-44.99)"/><rect class="cls-1" y="87.63" width="62.19" height="9.73"/><rect class="cls-1" x=".03" y="71.88" width="38.07" height="9.73"/><rect class="cls-1" x="37.26" y="21.23" width="7.94" height="62.19" transform="translate(-24.93 44.48) rotate(-45)"/><rect class="cls-1" x="39.9" y="13.65" width="7.94" height="38.07" transform="translate(-10.27 40.58) rotate(-44.99)"/><rect class="cls-1" x="90.35" y=".03" width="4.41" height="38.07"/></svg>